<svg width="70" height="70" filter="brightness(0) invert(1)" viewBox="0 0 70 70" fill="none" xmlns="http://www.w3.org/2000/svg">
<path d="M18.7256 44.0559C19.3793 43.6789 19.6031 42.842 19.2261 42.1883C18.8485 41.5352 18.0121 41.3109 17.3585 41.6879C16.7048 42.0655 16.4805 42.9023 16.8581 43.5555C17.2351 44.2092 18.072 44.4335 18.7256 44.0559Z" fill="black"/>
<path d="M13.123 53.4915L20.0081 65.4175C21.4938 67.9938 24.836 68.9476 27.479 67.4197C30.0943 65.9083 30.9931 62.5667 29.4801 59.9493L25.3786 52.8442L28.9306 50.7934C29.5843 50.4153 29.8086 49.5795 29.431 48.9258L27.6531 45.8465C27.8652 45.8053 29.259 45.5319 53.8401 40.7099C56.8789 40.5449 58.6995 37.2214 57.1646 34.5645L52.6209 26.6946L55.5245 22.2966C55.8097 21.8641 55.8268 21.3081 55.5678 20.8595L52.8334 16.1235C52.5744 15.6749 52.0825 15.4121 51.5672 15.4426L46.3072 15.7582L41.2631 7.021C40.5325 5.75528 39.2235 4.98891 37.7623 4.97075C37.7447 4.97021 37.7276 4.97021 37.71 4.97021C36.2979 4.97021 35.0162 5.67303 34.2568 6.86131L16.3968 29.6132L4.78585 36.3167C0.219125 38.9523 -1.36275 44.8109 1.28297 49.3899C3.70011 53.5769 8.79609 55.224 13.123 53.4915ZM27.1127 61.317C27.8678 62.6233 27.4208 64.2949 26.1108 65.0517C24.7965 65.8117 23.1227 65.3449 22.3761 64.0509L15.5402 52.2092L20.2762 49.4748C28.1877 63.1798 26.9856 61.0975 27.1127 61.317ZM24.0114 50.4757L22.6442 48.1077L25.0122 46.7405L26.3794 49.1085L24.0114 50.4757ZM50.8878 18.2223L52.7773 21.495L51.0924 24.0468L47.8357 18.4055L50.8878 18.2223ZM36.5436 8.36041C36.9105 7.76013 37.4926 7.69818 37.7287 7.70459C37.962 7.70726 38.5436 7.77989 38.8945 8.38765L54.7966 35.9317C55.3146 36.8284 54.685 37.9557 53.6463 37.9814C53.4599 37.9857 53.3739 38.0193 52.8964 38.1085L36.0752 8.97298C36.4282 8.51903 36.4736 8.47523 36.5436 8.36041ZM34.2557 11.2908L50.0601 38.665L26.208 43.3433L18.9555 30.7818L34.2557 11.2908ZM3.65098 48.0227C3.0507 46.984 2.73347 45.8048 2.73347 44.6117C2.73347 42.1732 4.04405 39.9024 6.15304 38.6847L16.8091 32.5324L23.645 44.3725L12.989 50.5253C9.72428 52.4095 5.53567 51.2869 3.65098 48.0227Z" fill="black"/>
<path d="M14.49 44.9225C14.1125 44.2689 13.2761 44.0446 12.6224 44.4221L10.2544 45.7893C9.60181 46.1664 8.76387 45.9415 8.38683 45.2889C8.00925 44.6352 7.17292 44.4109 6.51923 44.7885C5.86554 45.1661 5.64124 46.0024 6.01882 46.6561C7.14408 48.6054 9.65415 49.2927 11.6216 48.1573L13.9896 46.7901C14.6433 46.4126 14.8676 45.5768 14.49 44.9225Z" fill="black"/>
<path d="M67.9679 7.89513L60.3496 12.1345C59.69 12.5019 59.4523 13.3345 59.8198 13.9941C60.1861 14.6531 61.0182 14.8918 61.6794 14.5239L69.2971 10.2845C69.9572 9.91708 70.1944 9.08448 69.8269 8.42492C69.46 7.76482 68.6274 7.5277 67.9679 7.89513Z" fill="black"/>
<path d="M67.169 22.055L61.8866 20.6397C61.1571 20.4443 60.4072 20.8769 60.2118 21.6064C60.0163 22.3359 60.4494 23.0852 61.179 23.2806L66.4619 24.6959C67.1957 24.893 67.9417 24.4534 68.1361 23.7293C68.3316 22.9997 67.8985 22.2499 67.169 22.055Z" fill="black"/>
<path d="M53.8945 2.92766L52.4776 8.21056C52.2822 8.94008 52.7147 9.68937 53.4443 9.88537C54.1732 10.0803 54.9231 9.64878 55.1191 8.91872L56.5354 3.63582C56.7308 2.9063 56.2983 2.15648 55.5687 1.96102C54.8398 1.76555 54.0899 2.19814 53.8945 2.92766Z" fill="black"/>
</svg>
