<svg width="60" height="60" viewBox="0 0 60 60" fill="none" xmlns="http://www.w3.org/2000/svg">
<path d="M58.1149 22.2186C55.8925 20.3537 52.5669 20.6455 50.7054 22.8639L45.7021 28.7845V11.6161C45.7021 10.1771 45.1037 8.78367 44.0605 7.79285L37.3834 1.45008C36.3991 0.515039 35.1094 0 33.7518 0H5.27332C2.36566 0 0 2.36566 0 5.27332V54.7254C0 57.633 2.36566 59.9987 5.27332 59.9987H40.4289C43.3365 59.9987 45.7022 57.633 45.7022 54.7254V45.1206C45.9182 44.8648 58.7245 29.6955 58.7648 29.6479C60.6383 27.4152 60.3479 24.0922 58.1149 22.2186ZM35.1555 4.18242C42.1883 10.863 41.6889 10.3747 41.8207 10.5468H35.1555V4.18242ZM42.1866 54.7254C42.1866 55.6946 41.398 56.4832 40.4287 56.4832H5.27332C4.30406 56.4832 3.51551 55.6946 3.51551 54.7254V5.27332C3.51551 4.30406 4.30406 3.51551 5.27332 3.51551H31.6399V12.3043C31.6399 13.2751 32.427 14.0621 33.3977 14.0621H42.1866V32.9445C41.4315 33.8379 35.3688 41.012 34.7135 41.7874C34.19 42.4113 33.8133 43.1598 33.6241 43.9519L31.9905 50.7905C31.836 51.438 32.0604 52.1175 32.5704 52.5455C33.0809 52.9739 33.789 53.0762 34.3993 52.8117L40.8505 50.0154C41.3348 49.8054 41.7866 49.5202 42.1866 49.1774V54.7254ZM38.0057 43.3385L40.6984 45.5979L40.0996 46.3071C39.9253 46.515 39.7014 46.682 39.4523 46.7899L36.2269 48.1881L37.0438 44.7688C37.1068 44.5048 37.2323 44.2553 37.4029 44.0521L38.0057 43.3385ZM42.9661 42.9116L40.2747 40.6533C40.5477 40.3302 49.3799 29.8787 49.9907 29.156L52.6765 31.4096L42.9661 42.9116ZM56.0753 27.384L54.9445 28.7235L52.26 26.4709L53.3946 25.1283C54.0144 24.3896 55.1184 24.2933 55.8552 24.9116C56.6066 25.542 56.6895 26.6521 56.0753 27.384Z" fill="black"/>
</svg>
